<svg width="206" height="72" viewBox="0 0 206 72" fill="none" xmlns="http://www.w3.org/2000/svg">
<path d="M22.6152 1.02734C27.7179 0.953845 32.8247 1.04516 37.9541 1.1123C38.2316 1.11603 38.3602 1.16346 38.4072 1.1875C38.4382 1.20335 38.4484 1.21411 38.4639 1.24316C38.4887 1.28998 38.5238 1.38978 38.5439 1.58105C38.5639 1.77109 38.5651 2.002 38.5537 2.29004C38.4857 4.00386 38.4478 5.71801 38.4102 7.42188C38.3724 9.12867 38.3347 10.8258 38.2686 12.5195V12.5205C38.2436 13.1717 38.3101 13.8422 38.6797 14.4443C39.0518 15.0503 39.6365 15.4346 40.3164 15.7236L40.3213 15.7256C42.7995 16.7628 45.4887 17.8409 48.5967 17.374L48.5977 17.373C48.6162 17.3702 48.6737 17.366 48.7646 17.3721C48.8513 17.3779 48.9427 17.3922 49.0234 17.4111C49.2338 17.8235 49.5031 18.1636 49.8428 18.4199C50.2601 18.7349 50.7122 18.8715 51.127 18.9268C51.5263 18.98 51.9229 18.961 52.2402 18.9404C52.5889 18.9178 52.8412 18.8946 53.0928 18.9004C55.215 18.9495 57.5096 19.0923 59.7002 19.1035V19.1045C60.811 19.1385 61.9207 19.0076 62.9922 18.7168L63.0078 18.7129L63.0234 18.708C65.4212 17.973 67.5555 18.1961 70.0029 19.248H70.0039C71.2158 19.7681 71.9329 20.2283 72.3672 20.7861C72.725 21.2459 72.9623 21.868 73.001 22.8818L73.0049 23.3418C72.9385 27.1773 73.5093 31.0732 75.6025 34.7275C75.8663 35.1881 75.9757 35.8265 75.9961 36.6777C76.006 37.0942 75.9948 37.5251 75.9834 37.9844C75.9778 38.209 75.9721 38.441 75.9697 38.6748L75.9766 39.377C76.0395 41.2893 75.6921 42.7994 74.9287 44.0322C74.2119 45.1897 73.075 46.1892 71.3691 47.0439L71.0195 47.2129C69.0059 48.1591 67.1487 49.3753 65.3643 50.6162C63.5585 51.8719 61.8564 53.1313 60.0557 54.252H60.0547C54.5046 57.7079 52.1322 65.1146 55.2656 70.499C55.4075 70.7427 55.4469 70.9073 55.4551 70.9922C55.3852 71.0031 55.2563 71.0068 55.0654 70.9561L55.0645 70.9551C51.5686 70.0302 48.1471 69.3382 45.374 67.6826L45.3721 67.6807L45.2656 67.6133C44.7425 67.2527 44.2994 66.5643 43.8428 65.5449C43.6062 65.0168 43.3903 64.4609 43.1533 63.8701C42.9219 63.2933 42.6729 62.6894 42.3857 62.1299H42.3848C42.2306 61.8297 42.1406 61.5093 41.9746 61.0264C41.8459 60.6519 41.6695 60.1804 41.3633 59.751L41.2246 59.5703C38.2679 55.9824 35.4431 52.7366 34.4863 48.3926C34.3838 47.9266 34.1152 47.5263 33.8555 47.2363C33.5936 46.9441 33.2648 46.679 32.917 46.501H32.918C31.6087 45.8023 30.2475 45.2016 28.8467 44.7031L28.834 44.6982L28.0049 44.4199C27.2151 44.1594 26.5416 43.957 25.9668 43.8486C25.1837 43.7009 24.4275 43.6939 23.7188 44.0625C23.0436 44.4136 22.5729 45.0268 22.1543 45.707C21.7329 46.3918 21.2623 47.3223 20.6719 48.4434C20.3864 48.9841 20.1751 49.3476 19.9902 49.5928C19.8073 49.8353 19.7155 49.8736 19.7041 49.8779C19.6997 49.8796 19.6869 49.8843 19.6523 49.8838C19.6125 49.8832 19.5399 49.8751 19.4229 49.8408C19.1754 49.7684 18.8288 49.6097 18.3115 49.3203L18.3096 49.3193L18.0791 49.1846C17.8514 49.0461 17.6259 48.8947 17.3428 48.7158C16.9928 48.4947 16.5808 48.251 16.1162 48.0762C13.3515 47.036 11.8969 45.0773 10.9121 42.2773L10.7217 41.7061C10.4051 40.7093 9.78978 39.8393 9.1416 39.0889C8.49831 38.3441 7.7429 37.6305 7.12891 37.0166L7.12793 37.0156L6.77246 36.668C5.93817 35.8636 5.06509 35.1079 4.21582 34.373C3.23634 33.5255 2.28809 32.705 1.40723 31.8271C1.38137 31.8014 1.30393 31.6857 1.22266 31.292C1.20544 31.2086 1.19195 31.1254 1.17676 31.0381C1.19423 31.0347 1.21186 31.0315 1.22852 31.0283C1.55627 30.9662 1.83082 30.9285 2.08301 30.9277H2.08691C5.16141 30.9063 8.23345 30.8973 11.3428 30.8945H21.8232V29.8945C21.8232 20.0811 21.7936 10.8932 21.8965 1.70801C21.9026 1.69641 21.9104 1.68052 21.9219 1.66211C21.9784 1.57119 22.0732 1.45419 22.1953 1.33594C22.3172 1.21797 22.4411 1.12395 22.541 1.06543C22.5737 1.04628 22.5987 1.03464 22.6152 1.02734Z" stroke="#0057B7" stroke-width="2"/>
<path d="M100.916 31.896C101.54 31.896 102.096 31.792 102.584 31.584C103.08 31.376 103.496 31.084 103.832 30.708C104.168 30.332 104.424 29.876 104.6 29.34C104.784 28.804 104.876 28.204 104.876 27.54V17.148H108.104V27.54C108.104 28.572 107.936 29.528 107.6 30.408C107.272 31.28 106.796 32.036 106.172 32.676C105.556 33.308 104.804 33.804 103.916 34.164C103.028 34.516 102.028 34.692 100.916 34.692C99.796 34.692 98.792 34.516 97.904 34.164C97.016 33.804 96.26 33.308 95.636 32.676C95.02 32.036 94.544 31.28 94.208 30.408C93.88 29.528 93.716 28.572 93.716 27.54V17.148H96.944V27.528C96.944 28.192 97.032 28.792 97.208 29.328C97.392 29.864 97.652 30.324 97.988 30.708C98.332 31.084 98.748 31.376 99.236 31.584C99.732 31.792 100.292 31.896 100.916 31.896ZM114.03 16.668V26.88H114.582C114.782 26.88 114.938 26.856 115.05 26.808C115.17 26.752 115.29 26.644 115.41 26.484L118.47 22.704C118.598 22.536 118.738 22.408 118.89 22.32C119.05 22.232 119.254 22.188 119.502 22.188H122.214L118.386 26.76C118.114 27.12 117.818 27.396 117.498 27.588C117.666 27.708 117.814 27.848 117.942 28.008C118.078 28.168 118.206 28.34 118.326 28.524L122.43 34.5H119.754C119.522 34.5 119.322 34.464 119.154 34.392C118.986 34.312 118.846 34.172 118.734 33.972L115.59 29.304C115.478 29.12 115.362 29 115.242 28.944C115.122 28.888 114.942 28.86 114.702 28.86H114.03V34.5H111.066V16.668H114.03ZM126.682 24.324C127.066 23.588 127.522 23.012 128.05 22.596C128.578 22.172 129.202 21.96 129.922 21.96C130.49 21.96 130.946 22.084 131.29 22.332L131.098 24.552C131.058 24.696 130.998 24.8 130.918 24.864C130.846 24.92 130.746 24.948 130.618 24.948C130.498 24.948 130.318 24.928 130.078 24.888C129.846 24.848 129.618 24.828 129.394 24.828C129.066 24.828 128.774 24.876 128.518 24.972C128.262 25.068 128.03 25.208 127.822 25.392C127.622 25.568 127.442 25.784 127.282 26.04C127.13 26.296 126.986 26.588 126.85 26.916V34.5H123.886V22.188H125.626C125.93 22.188 126.142 22.244 126.262 22.356C126.382 22.46 126.462 22.652 126.502 22.932L126.682 24.324ZM139.179 29.244C138.323 29.284 137.603 29.36 137.019 29.472C136.435 29.576 135.967 29.712 135.615 29.88C135.263 30.048 135.011 30.244 134.859 30.468C134.707 30.692 134.631 30.936 134.631 31.2C134.631 31.72 134.783 32.092 135.087 32.316C135.399 32.54 135.803 32.652 136.299 32.652C136.907 32.652 137.431 32.544 137.871 32.328C138.319 32.104 138.755 31.768 139.179 31.32V29.244ZM132.387 23.904C133.803 22.608 135.507 21.96 137.499 21.96C138.219 21.96 138.863 22.08 139.431 22.32C139.999 22.552 140.479 22.88 140.871 23.304C141.263 23.72 141.559 24.22 141.759 24.804C141.967 25.388 142.071 26.028 142.071 26.724V34.5H140.727C140.447 34.5 140.231 34.46 140.079 34.38C139.927 34.292 139.807 34.12 139.719 33.864L139.455 32.976C139.143 33.256 138.839 33.504 138.543 33.72C138.247 33.928 137.939 34.104 137.619 34.248C137.299 34.392 136.955 34.5 136.587 34.572C136.227 34.652 135.827 34.692 135.387 34.692C134.867 34.692 134.387 34.624 133.947 34.488C133.507 34.344 133.127 34.132 132.807 33.852C132.487 33.572 132.239 33.224 132.063 32.808C131.887 32.392 131.799 31.908 131.799 31.356C131.799 31.044 131.851 30.736 131.955 30.432C132.059 30.12 132.227 29.824 132.459 29.544C132.699 29.264 133.007 29 133.383 28.752C133.759 28.504 134.219 28.288 134.763 28.104C135.315 27.92 135.955 27.772 136.683 27.66C137.411 27.54 138.243 27.468 139.179 27.444V26.724C139.179 25.9 139.003 25.292 138.651 24.9C138.299 24.5 137.791 24.3 137.127 24.3C136.647 24.3 136.247 24.356 135.927 24.468C135.615 24.58 135.339 24.708 135.099 24.852C134.859 24.988 134.639 25.112 134.439 25.224C134.247 25.336 134.031 25.392 133.791 25.392C133.583 25.392 133.407 25.34 133.263 25.236C133.119 25.124 133.003 24.996 132.915 24.852L132.387 23.904ZM147.934 22.188V34.5H144.958V22.188H147.934ZM148.342 18.6C148.342 18.856 148.29 19.096 148.186 19.32C148.082 19.544 147.942 19.74 147.766 19.908C147.598 20.076 147.398 20.212 147.166 20.316C146.934 20.412 146.686 20.46 146.422 20.46C146.166 20.46 145.922 20.412 145.69 20.316C145.466 20.212 145.27 20.076 145.102 19.908C144.934 19.74 144.798 19.544 144.694 19.32C144.598 19.096 144.55 18.856 144.55 18.6C144.55 18.336 144.598 18.088 144.694 17.856C144.798 17.624 144.934 17.424 145.102 17.256C145.27 17.088 145.466 16.956 145.69 16.86C145.922 16.756 146.166 16.704 146.422 16.704C146.686 16.704 146.934 16.756 147.166 16.86C147.398 16.956 147.598 17.088 147.766 17.256C147.942 17.424 148.082 17.624 148.186 17.856C148.29 18.088 148.342 18.336 148.342 18.6ZM153.728 23.7C153.976 23.452 154.236 23.224 154.508 23.016C154.788 22.8 155.08 22.62 155.384 22.476C155.696 22.324 156.028 22.208 156.38 22.128C156.732 22.04 157.116 21.996 157.532 21.996C158.204 21.996 158.8 22.112 159.32 22.344C159.84 22.568 160.272 22.888 160.616 23.304C160.968 23.712 161.232 24.204 161.408 24.78C161.592 25.348 161.684 25.976 161.684 26.664V34.5H158.72V26.664C158.72 25.912 158.548 25.332 158.204 24.924C157.86 24.508 157.336 24.3 156.632 24.3C156.12 24.3 155.64 24.416 155.192 24.648C154.744 24.88 154.32 25.196 153.92 25.596V34.5H150.956V22.188H152.768C153.152 22.188 153.404 22.368 153.524 22.728L153.728 23.7ZM167.575 22.188V34.5H164.599V22.188H167.575ZM167.983 18.6C167.983 18.856 167.931 19.096 167.827 19.32C167.723 19.544 167.583 19.74 167.407 19.908C167.239 20.076 167.039 20.212 166.807 20.316C166.575 20.412 166.327 20.46 166.063 20.46C165.807 20.46 165.563 20.412 165.331 20.316C165.107 20.212 164.911 20.076 164.743 19.908C164.575 19.74 164.439 19.544 164.335 19.32C164.239 19.096 164.191 18.856 164.191 18.6C164.191 18.336 164.239 18.088 164.335 17.856C164.439 17.624 164.575 17.424 164.743 17.256C164.911 17.088 165.107 16.956 165.331 16.86C165.563 16.756 165.807 16.704 166.063 16.704C166.327 16.704 166.575 16.756 166.807 16.86C167.039 16.956 167.239 17.088 167.407 17.256C167.583 17.424 167.723 17.624 167.827 17.856C167.931 18.088 167.983 18.336 167.983 18.6ZM177.101 29.244C176.245 29.284 175.525 29.36 174.941 29.472C174.357 29.576 173.889 29.712 173.537 29.88C173.185 30.048 172.933 30.244 172.781 30.468C172.629 30.692 172.553 30.936 172.553 31.2C172.553 31.72 172.705 32.092 173.009 32.316C173.321 32.54 173.725 32.652 174.221 32.652C174.829 32.652 175.353 32.544 175.793 32.328C176.241 32.104 176.677 31.768 177.101 31.32V29.244ZM170.309 23.904C171.725 22.608 173.429 21.96 175.421 21.96C176.141 21.96 176.785 22.08 177.353 22.32C177.921 22.552 178.401 22.88 178.793 23.304C179.185 23.72 179.481 24.22 179.681 24.804C179.889 25.388 179.993 26.028 179.993 26.724V34.5H178.649C178.369 34.5 178.153 34.46 178.001 34.38C177.849 34.292 177.729 34.12 177.641 33.864L177.377 32.976C177.065 33.256 176.761 33.504 176.465 33.72C176.169 33.928 175.861 34.104 175.541 34.248C175.221 34.392 174.877 34.5 174.509 34.572C174.149 34.652 173.749 34.692 173.309 34.692C172.789 34.692 172.309 34.624 171.869 34.488C171.429 34.344 171.049 34.132 170.729 33.852C170.409 33.572 170.161 33.224 169.985 32.808C169.809 32.392 169.721 31.908 169.721 31.356C169.721 31.044 169.773 30.736 169.877 30.432C169.981 30.12 170.149 29.824 170.381 29.544C170.621 29.264 170.929 29 171.305 28.752C171.681 28.504 172.141 28.288 172.685 28.104C173.237 27.92 173.877 27.772 174.605 27.66C175.333 27.54 176.165 27.468 177.101 27.444V26.724C177.101 25.9 176.925 25.292 176.573 24.9C176.221 24.5 175.713 24.3 175.049 24.3C174.569 24.3 174.169 24.356 173.849 24.468C173.537 24.58 173.261 24.708 173.021 24.852C172.781 24.988 172.561 25.112 172.361 25.224C172.169 25.336 171.953 25.392 171.713 25.392C171.505 25.392 171.329 25.34 171.185 25.236C171.041 25.124 170.925 24.996 170.837 24.852L170.309 23.904ZM185.556 23.7C185.804 23.452 186.064 23.224 186.336 23.016C186.616 22.8 186.908 22.62 187.212 22.476C187.524 22.324 187.856 22.208 188.208 22.128C188.56 22.04 188.944 21.996 189.36 21.996C190.032 21.996 190.628 22.112 191.148 22.344C191.668 22.568 192.1 22.888 192.444 23.304C192.796 23.712 193.06 24.204 193.236 24.78C193.42 25.348 193.512 25.976 193.512 26.664V34.5H190.548V26.664C190.548 25.912 190.376 25.332 190.032 24.924C189.688 24.508 189.164 24.3 188.46 24.3C187.948 24.3 187.468 24.416 187.02 24.648C186.572 24.88 186.148 25.196 185.748 25.596V34.5H182.784V22.188H184.596C184.98 22.188 185.232 22.368 185.352 22.728L185.556 23.7ZM203.843 24.588C203.763 24.716 203.679 24.808 203.591 24.864C203.503 24.912 203.391 24.936 203.255 24.936C203.111 24.936 202.955 24.896 202.787 24.816C202.627 24.736 202.439 24.648 202.223 24.552C202.007 24.448 201.759 24.356 201.479 24.276C201.207 24.196 200.883 24.156 200.507 24.156C199.923 24.156 199.463 24.28 199.127 24.528C198.799 24.776 198.635 25.1 198.635 25.5C198.635 25.764 198.719 25.988 198.887 26.172C199.063 26.348 199.291 26.504 199.571 26.64C199.859 26.776 200.183 26.9 200.543 27.012C200.903 27.116 201.267 27.232 201.635 27.36C202.011 27.488 202.379 27.636 202.739 27.804C203.099 27.964 203.419 28.172 203.699 28.428C203.987 28.676 204.215 28.976 204.383 29.328C204.559 29.68 204.647 30.104 204.647 30.6C204.647 31.192 204.539 31.74 204.323 32.244C204.115 32.74 203.803 33.172 203.387 33.54C202.971 33.9 202.455 34.184 201.839 34.392C201.231 34.592 200.527 34.692 199.727 34.692C199.303 34.692 198.887 34.652 198.479 34.572C198.079 34.5 197.691 34.396 197.315 34.26C196.947 34.124 196.603 33.964 196.283 33.78C195.971 33.596 195.695 33.396 195.455 33.18L196.139 32.052C196.227 31.916 196.331 31.812 196.451 31.74C196.571 31.668 196.723 31.632 196.907 31.632C197.091 31.632 197.263 31.684 197.423 31.788C197.591 31.892 197.783 32.004 197.999 32.124C198.215 32.244 198.467 32.356 198.755 32.46C199.051 32.564 199.423 32.616 199.871 32.616C200.223 32.616 200.523 32.576 200.771 32.496C201.027 32.408 201.235 32.296 201.395 32.16C201.563 32.024 201.683 31.868 201.755 31.692C201.835 31.508 201.875 31.32 201.875 31.128C201.875 30.84 201.787 30.604 201.611 30.42C201.443 30.236 201.215 30.076 200.927 29.94C200.647 29.804 200.323 29.684 199.955 29.58C199.595 29.468 199.223 29.348 198.839 29.22C198.463 29.092 198.091 28.944 197.723 28.776C197.363 28.6 197.039 28.38 196.751 28.116C196.471 27.852 196.243 27.528 196.067 27.144C195.899 26.76 195.815 26.296 195.815 25.752C195.815 25.248 195.915 24.768 196.115 24.312C196.315 23.856 196.607 23.46 196.991 23.124C197.383 22.78 197.867 22.508 198.443 22.308C199.027 22.1 199.699 21.996 200.459 21.996C201.307 21.996 202.079 22.136 202.775 22.416C203.471 22.696 204.051 23.064 204.515 23.52L203.843 24.588Z" fill="#0057B7"/>
<path d="M96.536 46.188V58.5H93.56V46.188H96.536ZM96.944 42.6C96.944 42.856 96.892 43.096 96.788 43.32C96.684 43.544 96.544 43.74 96.368 43.908C96.2 44.076 96 44.212 95.768 44.316C95.536 44.412 95.288 44.46 95.024 44.46C94.768 44.46 94.524 44.412 94.292 44.316C94.068 44.212 93.872 44.076 93.704 43.908C93.536 43.74 93.4 43.544 93.296 43.32C93.2 43.096 93.152 42.856 93.152 42.6C93.152 42.336 93.2 42.088 93.296 41.856C93.4 41.624 93.536 41.424 93.704 41.256C93.872 41.088 94.068 40.956 94.292 40.86C94.524 40.756 94.768 40.704 95.024 40.704C95.288 40.704 95.536 40.756 95.768 40.86C96 40.956 96.2 41.088 96.368 41.256C96.544 41.424 96.684 41.624 96.788 41.856C96.892 42.088 96.944 42.336 96.944 42.6ZM102.33 47.7C102.578 47.452 102.838 47.224 103.11 47.016C103.39 46.8 103.682 46.62 103.986 46.476C104.298 46.324 104.63 46.208 104.982 46.128C105.334 46.04 105.718 45.996 106.134 45.996C106.806 45.996 107.402 46.112 107.922 46.344C108.442 46.568 108.874 46.888 109.218 47.304C109.57 47.712 109.834 48.204 110.01 48.78C110.194 49.348 110.286 49.976 110.286 50.664V58.5H107.322V50.664C107.322 49.912 107.15 49.332 106.806 48.924C106.462 48.508 105.938 48.3 105.234 48.3C104.722 48.3 104.242 48.416 103.794 48.648C103.346 48.88 102.922 49.196 102.522 49.596V58.5H99.5578V46.188H101.37C101.754 46.188 102.006 46.368 102.126 46.728L102.33 47.7Z" fill="#0057B7"/>
<path d="M130.802 43.8H125.57V58.5H122.342V43.8H117.11V41.148H130.802V43.8ZM137.654 50.928C137.654 50.544 137.598 50.184 137.486 49.848C137.382 49.504 137.222 49.204 137.006 48.948C136.79 48.692 136.514 48.492 136.178 48.348C135.85 48.196 135.466 48.12 135.026 48.12C134.17 48.12 133.494 48.364 132.998 48.852C132.51 49.34 132.198 50.032 132.062 50.928H137.654ZM132.002 52.716C132.05 53.348 132.162 53.896 132.338 54.36C132.514 54.816 132.746 55.196 133.034 55.5C133.322 55.796 133.662 56.02 134.054 56.172C134.454 56.316 134.894 56.388 135.374 56.388C135.854 56.388 136.266 56.332 136.61 56.22C136.962 56.108 137.266 55.984 137.522 55.848C137.786 55.712 138.014 55.588 138.206 55.476C138.406 55.364 138.598 55.308 138.782 55.308C139.03 55.308 139.214 55.4 139.334 55.584L140.186 56.664C139.858 57.048 139.49 57.372 139.082 57.636C138.674 57.892 138.246 58.1 137.798 58.26C137.358 58.412 136.906 58.52 136.442 58.584C135.986 58.648 135.542 58.68 135.11 58.68C134.254 58.68 133.458 58.54 132.722 58.26C131.986 57.972 131.346 57.552 130.802 57C130.258 56.44 129.83 55.752 129.518 54.936C129.206 54.112 129.05 53.16 129.05 52.08C129.05 51.24 129.186 50.452 129.458 49.716C129.73 48.972 130.118 48.328 130.622 47.784C131.134 47.232 131.754 46.796 132.482 46.476C133.218 46.156 134.046 45.996 134.966 45.996C135.742 45.996 136.458 46.12 137.114 46.368C137.77 46.616 138.334 46.98 138.806 47.46C139.278 47.932 139.646 48.516 139.91 49.212C140.182 49.9 140.318 50.688 140.318 51.576C140.318 52.024 140.27 52.328 140.174 52.488C140.078 52.64 139.894 52.716 139.622 52.716H132.002ZM153.347 58.5H150.491C150.275 58.5 150.099 58.444 149.963 58.332C149.835 58.22 149.727 58.092 149.639 57.948L147.035 53.664C146.995 53.8 146.947 53.928 146.891 54.048C146.843 54.168 146.787 54.28 146.723 54.384L144.419 57.948C144.331 58.084 144.223 58.212 144.095 58.332C143.967 58.444 143.807 58.5 143.615 58.5H140.963L145.187 52.152L141.131 46.188H143.987C144.203 46.188 144.363 46.22 144.467 46.284C144.571 46.34 144.663 46.436 144.743 46.572L147.323 50.676C147.411 50.404 147.535 50.136 147.695 49.872L149.771 46.632C149.947 46.336 150.175 46.188 150.455 46.188H153.179L149.135 52.02L153.347 58.5ZM161.398 53.244C160.542 53.284 159.822 53.36 159.238 53.472C158.654 53.576 158.186 53.712 157.834 53.88C157.482 54.048 157.23 54.244 157.078 54.468C156.926 54.692 156.85 54.936 156.85 55.2C156.85 55.72 157.002 56.092 157.306 56.316C157.618 56.54 158.022 56.652 158.518 56.652C159.126 56.652 159.65 56.544 160.09 56.328C160.538 56.104 160.974 55.768 161.398 55.32V53.244ZM154.606 47.904C156.022 46.608 157.726 45.96 159.718 45.96C160.438 45.96 161.082 46.08 161.65 46.32C162.218 46.552 162.698 46.88 163.09 47.304C163.482 47.72 163.778 48.22 163.978 48.804C164.186 49.388 164.29 50.028 164.29 50.724V58.5H162.946C162.666 58.5 162.45 58.46 162.298 58.38C162.146 58.292 162.026 58.12 161.938 57.864L161.674 56.976C161.362 57.256 161.058 57.504 160.762 57.72C160.466 57.928 160.158 58.104 159.838 58.248C159.518 58.392 159.174 58.5 158.806 58.572C158.446 58.652 158.046 58.692 157.606 58.692C157.086 58.692 156.606 58.624 156.166 58.488C155.726 58.344 155.346 58.132 155.026 57.852C154.706 57.572 154.458 57.224 154.282 56.808C154.106 56.392 154.018 55.908 154.018 55.356C154.018 55.044 154.07 54.736 154.174 54.432C154.278 54.12 154.446 53.824 154.678 53.544C154.918 53.264 155.226 53 155.602 52.752C155.978 52.504 156.438 52.288 156.982 52.104C157.534 51.92 158.174 51.772 158.902 51.66C159.63 51.54 160.462 51.468 161.398 51.444V50.724C161.398 49.9 161.222 49.292 160.87 48.9C160.518 48.5 160.01 48.3 159.346 48.3C158.866 48.3 158.466 48.356 158.146 48.468C157.834 48.58 157.558 48.708 157.318 48.852C157.078 48.988 156.858 49.112 156.658 49.224C156.466 49.336 156.25 49.392 156.01 49.392C155.802 49.392 155.626 49.34 155.482 49.236C155.338 49.124 155.222 48.996 155.134 48.852L154.606 47.904ZM174.593 48.588C174.513 48.716 174.429 48.808 174.341 48.864C174.253 48.912 174.141 48.936 174.005 48.936C173.861 48.936 173.705 48.896 173.537 48.816C173.377 48.736 173.189 48.648 172.973 48.552C172.757 48.448 172.509 48.356 172.229 48.276C171.957 48.196 171.633 48.156 171.257 48.156C170.673 48.156 170.213 48.28 169.877 48.528C169.549 48.776 169.385 49.1 169.385 49.5C169.385 49.764 169.469 49.988 169.637 50.172C169.813 50.348 170.041 50.504 170.321 50.64C170.609 50.776 170.933 50.9 171.293 51.012C171.653 51.116 172.017 51.232 172.385 51.36C172.761 51.488 173.129 51.636 173.489 51.804C173.849 51.964 174.169 52.172 174.449 52.428C174.737 52.676 174.965 52.976 175.133 53.328C175.309 53.68 175.397 54.104 175.397 54.6C175.397 55.192 175.289 55.74 175.073 56.244C174.865 56.74 174.553 57.172 174.137 57.54C173.721 57.9 173.205 58.184 172.589 58.392C171.981 58.592 171.277 58.692 170.477 58.692C170.053 58.692 169.637 58.652 169.229 58.572C168.829 58.5 168.441 58.396 168.065 58.26C167.697 58.124 167.353 57.964 167.033 57.78C166.721 57.596 166.445 57.396 166.205 57.18L166.889 56.052C166.977 55.916 167.081 55.812 167.201 55.74C167.321 55.668 167.473 55.632 167.657 55.632C167.841 55.632 168.013 55.684 168.173 55.788C168.341 55.892 168.533 56.004 168.749 56.124C168.965 56.244 169.217 56.356 169.505 56.46C169.801 56.564 170.173 56.616 170.621 56.616C170.973 56.616 171.273 56.576 171.521 56.496C171.777 56.408 171.985 56.296 172.145 56.16C172.313 56.024 172.433 55.868 172.505 55.692C172.585 55.508 172.625 55.32 172.625 55.128C172.625 54.84 172.537 54.604 172.361 54.42C172.193 54.236 171.965 54.076 171.677 53.94C171.397 53.804 171.073 53.684 170.705 53.58C170.345 53.468 169.973 53.348 169.589 53.22C169.213 53.092 168.841 52.944 168.473 52.776C168.113 52.6 167.789 52.38 167.501 52.116C167.221 51.852 166.993 51.528 166.817 51.144C166.649 50.76 166.565 50.296 166.565 49.752C166.565 49.248 166.665 48.768 166.865 48.312C167.065 47.856 167.357 47.46 167.741 47.124C168.133 46.78 168.617 46.508 169.193 46.308C169.777 46.1 170.449 45.996 171.209 45.996C172.057 45.996 172.829 46.136 173.525 46.416C174.221 46.696 174.801 47.064 175.265 47.52L174.593 48.588Z" fill="#E52459"/>
</svg>
